# xmcd
#
# Track frame offsets: 
#        150
#        11275
#        25395
#        35840
#        54390
#        67830
#        83355
#        95100
#        108180
#        137980
#        152050
#        162925
#        175525
#        190015
#        204405
#        219932
#
# Disc length: 3100 seconds
#
# Revision: 6
# Processed by: cddbd v1.5.1PL0 Copyright (c) Steve Scherf et al.
# Submitted via: ExactAudioCopy v0.95a5
#
DISCID=c50c1a10
DTITLE=Various Artist - Boom Boom
DYEAR=1996
DGENRE=Blues
TTITLE0=John Lee Hooker - Boom Boom
TTITLE1=Ray Charles - Blues Is My Middle Name
TTITLE2=Sarah Vaughn - You Stepped Out of a Dream
TTITLE3=Solomon Burke - Please Come Back Home To Me
TTITLE4=Howlin' Wolf - Poor Boy
TTITLE5=B. B. King - How Blue Can You Get
TTITLE6=Leadbelly - Goodnight Irene
TTITLE7=Big Maybelle - Don't Let the Sun Catch You Cryin'
TTITLE8=Big Joe Turner - They Call It Stormy Monday
TTITLE9=T-Bone Walker - Why Won't My Baby Treat Me Right?
TTITLE10=Mills Brothers - Limehouse Blues
TTITLE11=Billie Holiday - My Man
TTITLE12=Earl "Fatha" Hines - St. Louis Blues
TTITLE13=Jelly Roll Morton - Jelly Roll Blues
TTITLE14=Otis Rush and Little Walter - It's Hard To Believe You
TTITLE15=Big Joe Williams - Don't Want No Big Fat Woman
EXTD=LABEL =CMC Home Entertainment\nID =10093-2\nUPC =5703976-10151
EXTD=5\nCOPYRIGHT =1996
EXTT0=
EXTT1=
EXTT2=Incorrectly listed as "You Step Out of My Dream".
EXTT3=
EXTT4=
EXTT5=
EXTT6=
EXTT7=
EXTT8=
EXTT9=
EXTT10=
EXTT11=
EXTT12=
EXTT13=
EXTT14=
EXTT15=
PLAYORDER=
